<svg width="259" height="231" viewBox="0 0 259 231" fill="none" xmlns="http://www.w3.org/2000/svg">
<rect width="259" height="231" rx="30" fill="url(#paint0_linear_662_106)" fill-opacity="0.6"/>
<path fill-rule="evenodd" clip-rule="evenodd" d="M41.9984 144.384C23.4158 144.379 11 131.212 11 115.245C11 99.2773 23.4475 85.9583 41.9718 86.0001H217.028C235.553 85.9583 248 99.2773 248 115.245C248 131.212 235.582 144.379 216.998 144.384H41.9984Z" fill="#CA3662"/>
<path fill-rule="evenodd" clip-rule="evenodd" d="M42.056 93.184C27.3447 93.2094 18.3125 103.043 18.3125 115.206C18.3125 127.367 27.2864 137.278 42.056 137.224H216.939C231.707 137.278 240.686 127.367 240.686 115.206C240.686 103.043 231.653 93.2106 216.939 93.184H42.056Z" fill="white" fill-opacity="0.6"/>
<path fill-rule="evenodd" clip-rule="evenodd" d="M34.5136 101.401H43.072L54.9228 120.565L54.9165 101.401H63.4103V128.887H54.9279L43.0175 109.722V128.887H34.5098L34.5136 101.401ZM109.606 104.231H117.879V107.928H122.354V110.643H117.879L117.884 128.887H109.606L109.61 110.643H105.118V107.931H109.613L109.606 104.231ZM68.1431 110.61H76.4089V128.887H68.1431V110.61ZM68.1253 101.395H76.4089V107.015H68.1253V101.395ZM216.301 119.602C216.301 119.602 216.295 122.361 216.295 123.472C216.295 126.384 214.576 127.589 212.916 127.589C211.262 127.589 209.531 126.384 209.531 123.472C209.531 122.361 209.536 119.533 209.536 119.533C209.536 119.533 209.543 116.831 209.543 115.72C209.543 112.819 211.268 111.626 212.916 111.626C214.564 111.626 216.295 112.819 216.295 115.72C216.295 116.831 216.295 118.877 216.301 119.614V119.602ZM212.98 109.361C206.312 109.361 200.906 113.957 200.906 119.627C200.906 125.293 206.313 129.888 212.98 129.888C219.656 129.888 225.062 125.293 225.062 119.627C225.062 113.957 219.656 109.361 212.98 109.361ZM190.055 101.401H198.212V128.882H190.042L190.037 127.831C186.878 129.815 183.303 129.81 180.521 128.516C179.776 128.168 174.868 125.812 174.868 119.456C174.868 114.627 179.423 109.361 185.376 109.883C187.338 110.058 188.73 110.772 190.054 111.513L190.055 101.401ZM190.115 119.656V116.39C190.115 113.563 188.165 112.843 186.878 112.843C185.559 112.843 183.634 113.563 183.634 116.39C183.634 117.323 183.639 119.649 183.639 119.649C183.639 119.649 183.634 121.923 183.634 122.897C183.634 125.722 185.559 126.459 186.878 126.459C188.165 126.459 190.115 125.722 190.115 122.897V119.656ZM95.7565 109.765C98.845 109.68 105.118 111.703 105.073 118.942C105.064 120.224 105.07 128.884 105.07 128.884H96.8587V116.881C96.8587 115.286 95.3347 113.514 93.0849 113.514C90.8313 113.514 89.1591 115.286 89.1591 116.881L89.168 128.884H80.9604L80.9541 110.608L89.1667 110.601C89.1667 110.601 89.1578 112.073 89.1667 112.522C90.9476 110.821 93.2949 109.839 95.7565 109.765ZM162.931 109.765C166.014 109.68 172.286 111.703 172.247 118.942C172.234 120.224 172.239 128.884 172.239 128.884H164.028V116.881C164.028 115.286 162.506 113.514 160.254 113.514C158.002 113.514 156.324 115.286 156.324 116.881L156.337 128.884H148.132L148.137 110.608L156.337 110.601C156.337 110.601 156.324 112.073 156.337 112.522C158.119 110.819 160.468 109.837 162.931 109.765ZM130.055 116.98C130.04 115.381 130.073 114.312 130.597 113.392C131.248 112.267 132.435 111.731 133.509 111.726H133.504C134.586 111.731 135.766 112.267 136.412 113.392C136.936 114.31 136.967 115.381 136.954 116.98H130.055ZM136.918 122.493C136.918 122.493 136.926 122.574 136.926 123.604C136.926 126.947 134.727 127.691 133.509 127.691C132.287 127.691 130.049 126.947 130.049 123.604C130.049 122.599 130.061 119.829 130.061 119.829C130.061 119.829 145.626 119.834 145.626 119.829C145.626 114.158 140.156 109.462 133.433 109.462C126.714 109.462 121.263 114.058 121.263 119.722C121.263 125.394 126.714 129.989 133.433 129.989C139.01 129.989 143.718 126.805 145.161 122.485L136.918 122.493ZM225.637 107.941H224.684V101.682H227.072C228.547 101.682 229.281 102.228 229.281 103.46C229.281 104.579 228.578 105.067 227.656 105.184L229.435 107.941H228.376L226.722 105.226H225.637V107.941ZM226.769 104.422C227.574 104.422 228.286 104.366 228.286 103.403C228.286 102.629 227.583 102.484 226.928 102.484H225.635V104.422H226.769Z" fill="#CA3662"/>
<path fill-rule="evenodd" clip-rule="evenodd" d="M221.268 104.794C221.268 101.68 223.796 99.3837 226.781 99.3837C229.74 99.3837 232.261 101.682 232.261 104.794C232.261 107.94 229.74 110.235 226.781 110.235C223.796 110.235 221.268 107.941 221.268 104.794ZM226.781 109.331C229.237 109.331 231.17 107.408 231.17 104.794C231.17 102.228 229.238 100.287 226.781 100.287C224.299 100.287 222.362 102.228 222.362 104.794C222.362 107.409 224.299 109.331 226.781 109.331Z" fill="#CA3662"/>
<defs>
<linearGradient id="paint0_linear_662_106" x1="29.5" y1="-20.087" x2="215.55" y2="234.249" gradientUnits="userSpaceOnUse">
<stop stop-color="white" stop-opacity="0.05"/>
<stop offset="1" stop-color="#565656" stop-opacity="0.6"/>
</linearGradient>
</defs>
</svg>
