<svg width="259" height="231" viewBox="0 0 259 231" fill="none" xmlns="http://www.w3.org/2000/svg">
<rect width="259" height="231" rx="30" fill="url(#paint0_linear_662_108)" fill-opacity="0.6"/>
<g clip-path="url(#clip0_662_108)">
<path d="M150.274 169.529C148.059 178.74 140.242 185.353 131.088 185.385H129.996V146.007H130.273C130.415 146.007 130.55 146.007 130.692 146.023C130.835 146.023 130.969 146.023 131.112 146.007C131.135 145.928 136.254 146.363 138.731 146.981C143.699 148.248 147.552 151.084 149.57 155.931C151.397 160.366 151.382 164.936 150.274 169.529Z" fill="#DE7E9A"/>
<path d="M178.654 139.235C178.638 139.433 178.615 139.615 178.575 139.813C178.535 140.091 178.496 140.368 178.456 140.669C178.44 140.788 178.417 140.906 178.393 141.009C178.338 141.421 178.251 141.841 178.195 142.261C176.826 150.379 174.026 158.006 169.745 165.11C163.313 175.841 154.571 184.118 143.439 189.82C139.918 191.626 136.334 193.368 132.362 194.042C131.611 194.16 130.875 194.263 130.147 194.303C130.084 194.303 130.028 194.303 129.965 194.279V185.409H131.057C140.219 185.369 148.051 178.756 150.243 169.553C151.35 164.959 151.374 160.382 149.531 155.97C147.49 151.115 143.652 148.288 138.692 147.021C136.215 146.387 131.096 145.967 131.073 146.046C130.93 146.046 130.796 146.046 130.653 146.07C130.511 146.07 130.376 146.07 130.234 146.046C130.234 146.031 130.131 146.031 129.957 146.046V123.791C130.012 123.791 130.076 123.791 130.139 123.807C130.313 123.807 130.495 123.791 130.653 123.767C132.433 123.569 134.174 122.936 135.938 121.827C136.571 121.431 137.188 120.995 137.798 120.584C139.641 119.293 141.421 117.891 143.201 116.521C145.796 114.517 148.186 112.283 150.876 110.438C157.719 105.742 166.288 107.017 172.198 111.293C175.798 113.891 177.72 117.59 178.448 121.89C178.527 122.31 178.591 122.746 178.646 123.158C179.445 128.464 179.327 133.873 178.654 139.235Z" fill="white"/>
<path d="M129.979 146.007V185.393C120.936 185.211 113.262 178.637 111.086 169.537C109.979 164.943 109.955 160.366 111.798 155.954C113.839 151.099 117.677 148.272 122.637 147.005C124.774 146.466 128.872 146.07 129.979 146.007Z" fill="#CA3662"/>
<path d="M88.1042 111.238C88.8716 110.684 89.6865 110.169 90.541 109.733C92.6218 108.585 94.6156 107.927 96.5935 107.674H96.6172C100.913 106.961 105.463 107.674 109.458 110.406C111.578 111.856 113.517 113.574 115.511 115.198C115.732 115.372 115.946 115.538 116.159 115.713C116.46 115.95 116.737 116.164 117.014 116.41C117.053 116.426 117.093 116.465 117.117 116.489C118.857 117.835 120.598 119.205 122.402 120.473H122.425C123.082 120.924 123.731 121.383 124.403 121.803C126.144 122.912 127.908 123.569 129.688 123.744C129.807 123.759 129.926 123.759 130.045 123.783V18.8115C127.275 18.7878 125.044 20.3797 121.437 22.2963C113.272 26.6761 106.072 32.3547 99.6158 39.0313C74.8519 64.6287 63.0475 100.586 56.6153 134.76C55.2465 142.047 52.1214 151.947 52.9363 159.297C53.7908 167.058 65.0571 174.424 70.6033 178.938C84.0691 189.923 99.1807 198.833 115.107 205.763C119.34 207.609 124.918 210.951 129.649 211.188H130.005V194.24C129.332 194.2 128.636 194.121 127.948 194.002C123.992 193.329 120.408 191.586 116.871 189.781C107.717 185.084 100.178 178.653 94.2041 170.551C94.0222 170.289 93.8244 170.052 93.6503 169.798C93.413 169.482 93.1756 169.149 92.9541 168.808L92.5981 168.27C92.4161 168.008 92.242 167.755 92.0838 167.494C92.0205 167.391 91.9651 167.312 91.9018 167.217C91.4429 166.504 90.992 165.791 90.5568 165.054C85.968 157.388 83.0564 149.096 81.8143 140.265C81.7906 140.106 81.7747 139.948 81.751 139.766C80.9756 134.024 80.4218 127.038 82.0121 120.995C82.827 117.099 84.7258 113.677 88.1042 111.238Z" fill="#CA3662"/>
<path d="M122.661 146.997C124.782 146.458 128.872 146.062 129.98 146.007V123.767C129.861 123.767 129.742 123.744 129.624 123.728C127.843 123.53 126.103 122.896 124.338 121.787C123.666 121.352 123.009 120.916 122.361 120.457H122.337C120.533 119.19 118.816 117.82 117.052 116.473C117.012 116.457 116.973 116.41 116.949 116.394C116.435 115.998 115.936 115.602 115.446 115.182C113.444 113.535 111.506 111.832 109.393 110.391C105.413 107.658 100.848 106.945 96.5523 107.658H96.5286C94.4082 108.015 92.3511 108.727 90.476 109.717C89.6216 110.177 88.8146 110.668 88.0392 111.222C84.653 113.654 82.7779 117.083 81.9234 121.027C81.8601 121.288 81.8205 121.542 81.7652 121.803C80.7366 127.783 80.8553 133.802 81.6465 139.782C81.6702 139.94 81.686 140.122 81.7098 140.281C81.7731 140.637 81.8126 140.993 81.868 141.35C83.1735 149.785 86.0454 157.728 90.4523 165.07C90.7134 165.506 90.9903 165.941 91.2672 166.377C91.4492 166.654 91.6233 166.955 91.8052 167.232C91.8685 167.335 91.9239 167.415 91.9872 167.51C92.1692 167.771 92.3274 168.024 92.5015 168.286L92.8575 168.824C93.0948 169.165 93.3164 169.482 93.5537 169.814C93.7357 170.076 93.9335 170.329 94.1076 170.567C100.081 178.669 107.621 185.116 116.775 189.789C120.296 191.594 123.88 193.337 127.851 194.01C128.548 194.129 129.22 194.208 129.908 194.248V185.377C120.865 185.195 113.191 178.629 111.015 169.521C109.907 164.928 109.884 160.35 111.727 155.938C113.84 151.099 117.693 148.264 122.661 146.997Z" fill="#EDEDED"/>
<path d="M191.653 177.354C183.78 183.967 175.291 189.868 166.414 195.055C158.083 199.926 149.404 204.124 140.463 207.767C137.314 209.058 133.517 211.212 129.996 211.196V194.247C130.059 194.247 130.115 194.247 130.178 194.271C130.914 194.232 131.665 194.152 132.393 194.01C136.349 193.337 139.933 191.594 143.47 189.788C154.61 184.086 163.352 175.81 169.777 165.078C174.247 157.61 177.134 149.555 178.424 140.978C178.448 140.859 178.464 140.74 178.487 140.637C178.527 140.36 178.567 140.083 178.606 139.782C178.63 139.584 178.646 139.401 178.685 139.203C179.342 134.016 179.69 128.25 178.701 123.062C178.646 122.643 178.559 122.207 178.503 121.795C177.767 117.518 175.853 113.82 172.253 111.198C166.319 106.922 157.774 105.654 150.931 110.351C148.241 112.188 145.843 114.43 143.256 116.433C141.476 117.804 139.696 119.205 137.86 120.496C137.243 120.932 136.634 121.352 136.001 121.748C134.261 122.857 132.496 123.514 130.716 123.688C130.534 123.712 130.36 123.728 130.202 123.728C130.139 123.728 130.083 123.728 130.02 123.704V18.8115C131.325 18.8115 132.749 19.1679 134.49 20.0233C150.195 27.6265 162.775 39.3322 172.625 53.6674C193.67 84.2782 200.617 120.552 207.065 156.39C208.6 165.197 197.586 172.341 191.653 177.354Z" fill="#DE7E9A"/>
<path d="M129.956 18.8116C131.262 18.8116 132.71 19.168 134.45 20.0234C150.155 27.6266 162.735 39.3244 172.585 53.6596C193.63 84.2704 200.577 120.544 207.017 156.382C208.6 165.213 197.578 172.365 191.629 177.37C183.757 183.983 175.267 189.884 166.39 195.071C158.067 199.942 149.38 204.14 140.44 207.783C137.291 209.074 133.533 211.212 130.012 211.212H129.616C124.885 210.99 119.291 207.624 115.074 205.787C99.148 198.857 84.0444 189.947 70.5706 178.954C65.0324 174.44 53.7739 167.074 52.9036 159.312C52.0887 151.963 55.2218 142.063 56.5826 134.776C63.0149 100.601 74.843 64.6446 99.5436 39.0393C105.976 32.3627 113.176 26.6841 121.364 22.3043C124.956 20.3798 127.187 18.8116 129.956 18.8116ZM129.956 16C126.966 16 124.592 17.3306 121.823 18.8512C121.269 19.168 120.676 19.4848 120.059 19.8254C112.028 24.118 104.473 29.9234 97.5498 37.091C91.4735 43.3715 85.8957 50.5708 80.9509 58.5146C76.4016 65.801 72.2637 73.919 68.6243 82.6151C62.3898 97.6077 57.5478 114.493 53.8293 134.254C53.4891 136.051 53.0381 138.055 52.5634 140.154C51.1155 146.49 49.4778 153.673 50.1266 159.613C50.981 167.335 59.6049 173.972 65.8948 178.819C66.9628 179.651 67.9756 180.419 68.8221 181.116C82.0348 191.887 97.2254 201.059 113.983 208.345C114.956 208.765 116 209.28 117.131 209.81C120.992 211.672 125.36 213.786 129.513 213.984C129.695 213.984 129.869 214.008 130.051 214.008C133.398 214.008 136.618 212.559 139.451 211.291C140.186 210.951 140.875 210.658 141.531 210.381C150.828 206.603 159.673 202.263 167.838 197.495C177.079 192.109 185.703 186.05 193.472 179.516C194.263 178.843 195.173 178.13 196.146 177.354C199.311 174.82 202.911 171.969 205.664 168.603C207.262 166.638 208.418 164.761 209.13 162.837C210 160.516 210.222 158.18 209.826 155.891C206.361 136.622 203.077 119.277 198.014 102.249C195.205 92.7844 192.096 84.3496 188.535 76.4296C184.54 67.5354 180.086 59.5758 174.927 52.0756C164.262 36.5682 151.049 24.9258 135.685 17.481C133.596 16.499 131.737 16 129.956 16Z" fill="white"/>
</g>
<defs>
<linearGradient id="paint0_linear_662_108" x1="29.5" y1="-20.087" x2="215.55" y2="234.249" gradientUnits="userSpaceOnUse">
<stop stop-color="white" stop-opacity="0.05"/>
<stop offset="1" stop-color="#565656" stop-opacity="0.6"/>
</linearGradient>
<clipPath id="clip0_662_108">
<rect width="160" height="198" fill="white" transform="translate(50 16)"/>
</clipPath>
</defs>
</svg>
