<svg width="259" height="231" viewBox="0 0 259 231" fill="none" xmlns="http://www.w3.org/2000/svg">
<rect width="259" height="231" rx="30" fill="url(#paint0_linear_662_123)" fill-opacity="0.6"/>
<path d="M191.064 83.3043C187.06 49.8867 161.259 35.6482 149.454 30.8434C146.337 29.5643 143.092 28.6049 139.775 28.0453C93.5294 20.3704 72.0691 57.3057 69.3436 62.4063C69.1758 62.7261 69.2797 63.1258 69.5994 63.3097L74.2431 66.0679C74.5388 66.2438 74.6587 66.6195 74.5149 66.9313C56.7152 105.969 80.8531 132.927 90.4523 141.609C92.4105 143.368 94.5365 144.967 96.8144 146.334C138.065 171.142 170.747 140.69 170.747 140.69C198.905 115.403 191.064 83.3043 191.064 83.3043ZM87.5269 89.9879C82.4436 100.029 83.6025 109.159 83.2029 111.517C82.8272 113.732 81.4285 111.789 81.2607 111.541C81.2527 111.525 81.2447 111.509 81.2287 111.493C78.3434 106.569 78.9908 95.2164 79.0387 94.4649C79.0387 94.4409 79.0467 94.4169 79.0467 94.3849C80.0937 88.5009 83.3707 79.5309 86.2001 76.6928C89.0775 73.8147 91.0437 69.5296 101.842 64.2851C112.68 59.0805 123.606 59.84 133.924 64.2851C144.243 68.7301 152.044 80.0505 152.851 84.7754C153.57 88.9646 150.917 86.0705 150.357 85.4149C150.301 85.351 150.261 85.287 150.237 85.2071C150.11 84.8393 149.11 83.1444 141.533 77.2044C132.654 70.2811 120.808 68.3224 111.689 70.6808C102.489 73.0232 92.6103 79.9466 87.5269 89.9879ZM141.901 114.172C130.432 126.515 119.266 117.497 118.826 117.138C118.818 117.13 118.81 117.122 118.794 117.114C107.541 108.951 113.615 96.3676 114.103 95.4162C114.119 95.3763 114.143 95.3443 114.167 95.3123C121.72 85.4389 129.496 86.6381 133.533 88.277C135.211 88.9566 136.69 90.0358 137.937 91.355C145.338 99.4775 140.151 107.784 138.56 109.943C138.336 110.246 138.4 110.67 138.704 110.894L141.805 113.156C142.133 113.396 142.181 113.868 141.901 114.172ZM178.947 110.198C178.947 110.198 166.423 148.533 125.74 144.375C125.74 144.375 98.9165 140.458 94.4566 112.069C94.4566 112.053 94.4486 112.029 94.4486 112.013C94.2807 111.342 90.9478 97.1351 107.597 84.4076C107.613 84.3916 107.637 84.3836 107.652 84.3676C107.828 84.2637 108.612 83.856 108.26 85.351C107.86 87.0299 102.977 88.4689 101.019 102.875C99.0604 117.282 111.177 125.844 114.302 128.002C117.42 130.161 137.105 137.964 151.868 123.597C166.279 109.575 164.217 91.5069 164.113 90.6514C164.113 90.6274 164.105 90.6115 164.105 90.5875C164.081 89.78 163.409 73.351 146.905 59.888C130.264 46.3131 109.755 50.3424 109.075 50.4783C109.067 50.4783 109.051 50.4863 109.043 50.4863C108.62 50.5502 100.243 51.8694 87.495 60.2078C87.3751 60.2877 87.2152 60.4077 87.1353 60.5276C86.8955 60.8873 86.1362 61.6868 84.7775 61.1272C83.4187 60.5675 83.6984 60.3277 85.4568 58.5289C87.0793 56.866 88.0225 55.8187 88.1584 55.6668C88.1663 55.6508 88.1823 55.6428 88.1903 55.6269C88.8377 54.7874 111.529 25.8228 151.668 44.1625C152.667 44.6022 153.586 45.1219 154.506 45.7215C162.019 50.4143 191.504 71.784 178.947 110.198ZM34 166.625H41.4412C41.8168 166.625 42.1206 166.928 42.1206 167.304V189.913C42.1206 189.969 42.1285 190.025 42.1365 190.073C42.3044 190.768 43.6711 195.549 48.6745 195.549C54.0376 195.549 55.7161 190.864 55.7161 190.065V167.256C55.7161 166.88 56.0198 166.577 56.3955 166.577H62.9575C63.3331 166.577 63.6368 166.88 63.6368 167.256V189.585C63.6368 189.905 63.6368 190.225 63.5969 190.545C63.2772 193.103 61.1991 202.872 48.8344 202.872C37.309 202.872 34.7513 194.67 34.1918 191.544C34.0719 190.944 34.032 190.345 34.032 189.705V166.617L34 166.625ZM86.1282 183.789C86.1282 183.789 90.4523 181.91 90.4523 175.387C90.4523 168.863 82.9311 166.585 79.4463 166.585H67.9209C67.5453 166.585 67.2415 166.88 67.2415 167.256C67.1856 172.221 66.8819 202.96 67.2495 202.96H81.2527C81.8521 202.96 82.4916 202.88 83.091 202.72C85.6087 202.041 91.811 199.682 91.811 192.759C91.811 184.109 86.1282 183.789 86.1282 183.789ZM74.8905 174.084C74.8905 173.716 75.1862 173.412 75.5539 173.404C76.4411 173.38 78.0876 173.34 79.6941 173.34C81.1728 173.34 83.0111 174.819 83.0111 177.018C83.0111 178.417 82.2118 179.336 81.4925 179.896C80.8131 180.375 80.0138 180.615 79.2146 180.615H75.5779C75.2022 180.615 74.8985 180.311 74.8985 179.936V174.084H74.8905ZM80.0058 196.157H75.5619C75.1862 196.157 74.8825 195.853 74.8825 195.477V188.29C74.8825 187.922 75.1703 187.627 75.5379 187.611C76.553 187.579 78.5991 187.515 80.5653 187.515C82.3237 187.515 84.5297 189.273 84.5297 191.92C84.5297 193.559 83.6105 194.638 82.7313 195.317C81.9241 195.877 80.9649 196.157 80.0058 196.157ZM95.3677 166.625H102.09C102.465 166.625 102.769 166.928 102.769 167.304V202.241C102.769 202.617 102.465 202.92 102.09 202.92H95.3677C94.9921 202.92 94.6884 202.617 94.6884 202.241V167.304C94.6884 166.928 94.9921 166.625 95.3677 166.625ZM104.975 195.549L110.546 191.16C110.866 190.904 111.337 190.992 111.553 191.344C112.408 192.767 114.71 195.949 118.339 195.949C123.022 195.949 122.663 191.304 122.663 191.304C122.663 191.304 122.783 188.946 116.66 187.059C110.538 185.18 106.621 181.295 106.901 176.778C107.181 172.293 110.298 167.456 114.902 166.617C119.37 165.801 125.045 165.889 129.433 171.941C129.656 172.245 129.584 172.669 129.281 172.892L124.389 176.466C124.061 176.706 123.598 176.61 123.398 176.258C122.703 175.051 120.88 172.685 117.38 173.02C112.696 173.46 113.575 177.345 114.822 178.585C115.941 179.704 121.744 181.782 123.062 182.262C123.254 182.342 123.854 182.566 124.077 182.654C124.093 182.662 124.109 182.67 124.125 182.678C125.476 183.333 130.104 186.012 130.344 189.753C130.663 194.238 130.783 198.355 124.141 201.681C117.491 204.959 108.851 201.833 104.975 195.549ZM193.989 188.354H179.666C179.291 188.354 178.987 188.658 178.987 189.034V202.241C178.987 202.617 178.683 202.92 178.308 202.92H172.185C171.81 202.92 171.506 202.617 171.506 202.241V167.424C171.506 167.048 171.81 166.745 172.185 166.745H194.869C195.244 166.745 195.548 167.048 195.548 167.424V173.788C195.548 174.164 195.244 174.467 194.869 174.467H179.746C179.371 174.467 179.067 174.771 179.067 175.147V181.471C179.067 181.846 179.371 182.15 179.746 182.15H193.989M208.152 202.233V175.299C208.152 174.923 207.849 174.619 207.473 174.619H198.993C198.617 174.619 198.313 174.315 198.313 173.94V167.416C198.313 167.04 198.617 166.737 198.993 166.737H225.321C225.696 166.737 226 167.04 226 167.416V173.94C226 174.315 225.696 174.619 225.321 174.619H217.112C216.736 174.619 216.433 174.923 216.433 175.299V202.233C216.433 202.609 216.129 202.912 215.753 202.912H208.832C208.456 202.912 208.152 202.609 208.152 202.233ZM151.141 165.897C146.153 165.897 141.637 167.816 138.32 170.966C138.041 171.23 138.033 171.669 138.304 171.941L138.368 172.005C138.632 172.269 138.632 172.709 138.36 172.972C135.043 176.258 133.261 181.111 133.261 186.148C133.261 187.826 133.501 189.465 133.94 191.032C134.1 191.592 134.3 192.112 134.58 192.631C137.657 198.595 143.939 202.672 151.141 202.672C161.099 202.672 168.701 194.95 169.22 185.228C169.22 184.908 169.26 184.629 169.26 184.309C169.22 174.148 161.419 165.897 151.141 165.897ZM151.58 195.717C150.301 195.837 149.063 195.757 147.856 195.517C144.339 194.718 141.653 192.12 140.814 188.594C140.614 187.754 140.494 186.835 140.494 185.956C140.494 182.942 141.669 180.231 143.58 178.193C143.819 177.937 143.827 177.537 143.588 177.273L143.428 177.098C143.172 176.818 143.204 176.378 143.492 176.13C145.402 174.483 147.552 173.476 150.341 173.476C153.858 173.476 156.983 174.675 159.061 177.202C160.94 179.44 161.939 182.446 161.579 185.644C161.099 190.872 156.863 195.15 151.58 195.717ZM193.989 187.946V182.622Z" fill="#CA3662"/>
<defs>
<linearGradient id="paint0_linear_662_123" x1="29.5" y1="-20.087" x2="215.55" y2="234.249" gradientUnits="userSpaceOnUse">
<stop stop-color="white" stop-opacity="0.05"/>
<stop offset="1" stop-color="#565656" stop-opacity="0.6"/>
</linearGradient>
</defs>
</svg>
