<svg width="259" height="231" viewBox="0 0 259 231" fill="none" xmlns="http://www.w3.org/2000/svg">
<rect width="259" height="231" rx="30" fill="url(#paint0_linear_662_104)" fill-opacity="0.6"/>
<path d="M39.1723 202.803H41.3387V210.777H39.1723V202.803ZM58.2864 202.803H60.3854V210.777H58.0297L53.6865 205.217H53.6649V210.777H51.5657V202.803H54.0773L58.2629 208.363H58.2864V202.803ZM72.8002 204.322H69.8421V202.803H77.9249V204.322H74.9666V210.776H72.8004V204.322H72.8002ZM87.3819 202.803H94.8279V204.322H89.5477V205.976H94.5601V207.427H89.5477V209.259H94.8724V210.777H87.3817L87.3819 202.803ZM104.776 202.803H110.571C112.781 202.803 113.149 204.156 113.149 204.971C113.149 205.943 112.759 206.567 111.855 206.891V206.914C112.804 207.057 112.949 208.263 112.949 209.046C112.949 209.435 112.983 210.374 113.362 210.776H110.994C110.794 210.406 110.783 210.085 110.783 209.246C110.783 208.13 110.303 207.849 109.633 207.849H106.942V210.776H104.775V202.803H104.776ZM106.942 206.332H109.812C110.292 206.332 110.85 206.066 110.85 205.315C110.85 204.524 110.225 204.322 109.7 204.322H106.942V206.332H106.942ZM128.724 209.136H125.063L124.415 210.777H122.082L125.588 202.803H128.2L131.707 210.777H129.372L128.724 209.136ZM126.894 204.524L125.643 207.684H128.144L126.894 204.524ZM147.749 205.821C147.548 204.67 146.599 204.098 145.471 204.098C143.419 204.098 142.982 205.706 142.982 206.79C142.982 207.872 143.419 209.483 145.471 209.483C146.522 209.483 147.536 208.979 147.749 207.718H150.106C149.838 210.039 147.928 211 145.394 211C142.49 211 140.683 209.749 140.683 206.79C140.683 203.831 142.491 202.581 145.394 202.581C147.315 202.581 149.759 203.071 150.084 205.82H147.749V205.821H147.749ZM162.039 204.322H159.082V202.803H167.165V204.322H164.206V210.776H162.039V204.322H162.039ZM176.621 202.803H178.787V210.777H176.621V202.803ZM188.009 202.803H190.388L192.7 208.878L195.011 202.803H197.388L193.847 210.777H191.549L188.009 202.803ZM206.608 202.803H214.056V204.322H208.775V205.976H213.79V207.427H208.775V209.259H214.101V210.777H206.608V202.803ZM39 178.343H46.2731V180.3H46.3338C47.6862 178.734 49.7603 177.894 53.097 177.894C57.9668 177.894 62.4449 180.568 62.4449 186.67C62.4449 192.774 57.9665 195.45 53.097 195.45C50.0311 195.45 47.8663 194.698 46.5748 193.135H46.5142V200.68H39V178.343ZM50.6622 190.399C53.3679 190.399 54.7496 188.775 54.7496 186.67C54.7496 184.506 53.5474 182.945 50.6316 182.945C47.7469 182.945 46.5145 184.325 46.5145 186.67C46.5142 188.984 47.7466 190.399 50.6622 190.399ZM65.6913 183.334C66.1424 181.08 67.075 179.697 68.9377 178.825C70.7719 177.986 73.507 177.683 77.474 177.683C85.1395 177.683 88.1752 179.396 88.1752 184.295V192.231C88.1752 193.494 88.506 194.246 88.8667 194.788H81.1718C81.0221 194.306 80.9316 193.765 80.9007 193.165C79.2184 194.728 76.6629 195.45 72.6648 195.45C67.6146 195.45 64.4293 194.096 64.4293 189.888C64.4293 186.881 66.5633 184.959 72.1241 184.718L78.4665 184.417C79.9699 184.326 80.48 183.965 80.48 183.065C80.48 181.982 79.1275 181.471 76.9938 181.471C75.2801 181.471 73.5667 181.739 73.206 183.334H65.6913ZM80.6612 187.302C79.3989 187.573 77.2647 187.753 74.5899 187.994C73.2064 188.115 72.5447 188.564 72.5447 189.616C72.5447 190.76 73.4771 191.479 75.3403 191.479C77.8652 191.479 80.6614 190.849 80.6614 188.024L80.6612 187.302ZM92.1438 178.343H99.4175V181.501H99.4783C101.432 178.945 103.896 177.894 106.482 177.894C107.293 177.894 108.135 177.954 108.947 178.072V184.807C107.624 184.477 106.511 184.205 105.189 184.205C102.514 184.205 99.6586 185.078 99.6586 188.625V194.788H92.1438V178.343ZM111.621 183.334C112.073 181.08 113.004 179.697 114.868 178.825C116.701 177.986 119.436 177.683 123.404 177.683C131.069 177.683 134.106 179.396 134.106 184.295V192.231C134.106 193.494 134.436 194.246 134.797 194.788H127.103C126.951 194.306 126.86 193.765 126.831 193.165C125.148 194.728 122.593 195.45 118.595 195.45C113.545 195.45 110.359 194.096 110.359 189.888C110.359 186.881 112.493 184.959 118.053 184.718L124.396 184.417C125.899 184.326 126.409 183.965 126.409 183.065C126.409 181.982 125.058 181.471 122.924 181.471C121.21 181.471 119.497 181.739 119.135 183.334H111.621ZM126.591 187.302C125.328 187.573 123.194 187.753 120.519 187.994C119.135 188.115 118.474 188.564 118.474 189.616C118.474 190.76 119.406 191.479 121.27 191.479C123.795 191.479 126.591 190.849 126.591 188.024L126.591 187.302ZM153.342 193.044H153.282C151.93 194.607 149.856 195.449 146.52 195.449C141.65 195.449 137.171 192.774 137.171 186.669C137.171 180.569 141.65 177.894 146.52 177.894C149.585 177.894 151.749 178.644 153.042 180.209H153.102V172.574H160.617V194.787H153.342V193.044ZM148.955 182.945C146.25 182.945 144.866 184.568 144.866 186.67C144.866 188.835 146.068 190.399 148.985 190.399C151.872 190.399 153.103 189.016 153.103 186.67C153.102 184.355 151.872 182.945 148.955 182.945ZM175.915 177.683C184.394 177.683 188.09 180.509 188.09 186.551C188.09 192.623 184.394 195.45 175.915 195.45C167.44 195.45 163.743 192.623 163.743 186.551C163.743 180.51 167.44 177.683 175.915 177.683ZM175.915 190.58C178.953 190.58 180.214 189.195 180.214 186.55C180.214 183.965 178.953 182.554 175.915 182.554C172.91 182.554 171.619 183.965 171.619 186.55C171.62 189.194 172.91 190.58 175.915 190.58ZM189.113 194.787L196.688 186.189L189.745 178.343H198.941L201.918 182.764L204.894 178.343H214.091L207.028 186.189L214.724 194.787H205.163L201.918 190.128L198.67 194.787H189.113ZM193.309 97.093C192.418 92.7408 196.948 88.9698 194.805 84.5187C192.681 80.1338 182.326 80.3455 182.166 75.2976C181.952 69.4012 190.537 72.4077 194.127 72.5212C194.127 63.0741 190.408 55.0061 180.246 61.3816C178.54 61.3816 176.218 61.0359 175.407 59.5187C172.365 53.9337 181.661 52.7374 181.914 48.2283C182.056 45.6167 178.863 43.9604 177.871 41.8356C177.193 40.4211 177.794 38.6143 177.794 37.107C177.794 36.4766 177.057 36.4505 176.562 36.3271C174.643 35.833 172.862 36.9347 170.887 36.513C168.703 36.0397 167.5 34.0406 165.553 33.132C165.553 33.9377 164.161 34.9901 163.702 35.6476C162.268 37.6333 157.116 44.6726 153.98 41.6159C152.751 40.4203 152.954 38.3056 153.201 36.6885C155.011 24.5012 150.557 23.175 139.847 21.4717C137.248 21.039 130.617 19.4718 127.585 20.398C127.585 22.4891 130.229 37.0783 125.543 36.3168C119.969 36.3168 123.014 21.8326 114.93 20C113.598 20.4869 111.841 20.6917 110.977 21.9635C109.829 23.6355 112.111 28.7299 112.612 30.7047C113.221 33.1945 113.094 36.5285 112.069 38.7003V39.0974C102.924 39.0974 103.859 18.8305 89.6236 28.7561C89.6236 34.1783 102.535 41.0404 98.1056 46.9958C97.3455 47.9874 96.0886 48.8303 94.8353 48.9973C87.908 49.8298 85.1651 34.8829 77.4251 36.2091C76.1607 36.423 75.0369 37.4153 74.4971 38.4935C72.673 42.024 81.2416 47.1706 82.4836 50.6833C83.1637 52.6006 82.5652 54.3603 82.2726 56.2098C75.7526 56.2098 68.088 46.8596 62.0177 52.7915C61.0576 53.7099 60.0195 54.9898 60.3924 56.4192C61.016 58.8967 65.4303 58.4783 66.771 60.8054C66.8236 60.9065 66.8645 60.9974 66.9148 61.0978C69.2152 66.3191 63.9243 70.1761 63.8536 74.9127C63.7991 77.2728 65.6356 78.6044 64.883 81.2004C62.2854 90.0429 53.89 80.1802 49.8983 83.9618C46.3013 87.3492 50.3913 94.397 50.6629 98.3878C50.8279 100.999 49.4091 102.959 49.2465 105.511C49.0829 107.835 50.7541 109.575 51.3278 111.631C52.1002 114.457 51.2849 117.583 52.8484 120.023C57.3606 127.009 65.0526 108.022 68.4705 116.022C71.2341 122.498 57.2386 122.144 56.8993 127.055C56.5428 131.937 65.0524 136.33 68.2837 139.483C71.1246 142.251 73.3749 145.793 73.7523 149.771C74.1167 153.739 72.2591 157.769 71.2472 161.254C72.6857 161.254 73.7354 161.874 75.2524 161.438C82.3513 159.335 86.5188 147.994 85.3491 140.984C84.3517 135.078 81.1217 130.015 80.7268 123.843C80.3348 117.762 86.2623 107.561 80.5846 103.214C80.3348 103.065 80.0794 102.911 79.8203 102.763C79.8203 103.399 78.4659 103.609 77.7708 103.629C76.528 103.672 75.5397 103.187 74.6964 102.53C73.472 101.568 72.7544 100.092 73.7356 98.6685C75.1045 96.6658 78.9746 97.0557 79.4377 94.3479C80.4237 88.3659 67.8934 87.1936 75.4732 79.8192C76.8777 78.4402 78.8411 77.357 81.0183 77.5325C84.5322 77.8071 93.0029 80.3141 92.5267 84.8194C92.2978 86.8607 90.5783 88.7743 91.3214 91.0638C92.0813 93.4354 95.5618 93.1622 96.4801 95.4003C97.7224 98.4361 95.1908 100.684 95.4339 103.506C95.493 104.219 95.8057 104.475 96.3443 104.902C97.415 105.734 99.4743 106.017 100.095 107.401C101.678 110.918 97.4232 115.191 103.094 117.089C103.094 114.59 102.528 111.222 104.724 109.924C104.724 110.523 105.939 111.359 106.304 111.942C108.094 114.733 108.838 117.36 112.478 118.284C112.611 112.995 109.618 108.469 109.618 108.328C112.234 108.328 113.834 111.777 116.794 110.991C119.504 110.259 117.103 107.25 116.471 105.983C114.676 102.374 117.256 99.444 116.162 96.1095C115.006 92.5823 105.562 90.0828 102.659 87.2422C101.684 86.3024 100.654 84.7503 101.134 83.2757C102.914 77.7446 109.442 81.0427 113.997 79.7388C116.129 79.1099 117.744 77.6345 119.268 75.9676C121.358 73.6437 122.823 69.8523 121.512 66.688C120.737 64.8092 119.37 63.3854 119.701 61.0263C121.077 51.0785 137.175 51.6305 144.193 55.2446C147.781 57.0813 151.178 61.2951 149.287 65.5993C147.604 69.3733 143.059 67.1777 139.847 68.5769C137.018 69.7995 133.309 75.5079 132.368 78.2C130.94 82.2455 134.932 85.3046 135.205 89.237C135.75 97.8363 131.705 105.735 129.995 113.494C129.67 114.913 130.93 116.838 130.172 118.143C128.938 120.237 126.36 119.464 124.296 120.229C122.694 120.823 121.97 122.072 120.572 122.954C117.568 124.804 114.104 125.704 113.71 129.82C115.607 129.82 116.997 128.802 119.012 128.621C119.297 128.594 119.413 128.775 119.421 129.017C119.413 129.162 119.382 129.281 119.371 129.409C118.899 132.985 116.079 136.016 117.793 139.758C120.324 139.758 120.923 133.849 125.138 135.386C125.633 135.386 125.573 135.415 125.701 135.843C126.562 138.596 126.91 140.955 128.398 143.347C128.805 143.347 130.112 142.977 130.068 141.92C129.956 139.385 129.56 135.554 130.419 133.389C131.656 130.175 133.875 130.59 133.301 126.238C133.95 126.238 134.719 125.119 135.431 124.879C140.587 123.078 141.439 120.089 147.986 120.302C149.565 120.342 151.164 120.418 152.484 121.069C153.637 121.069 153.2 119.289 152.792 117.905C150.497 110.299 147.591 102.776 147.591 94.0095H148.814C148.814 94.9907 152.696 100.258 153.44 101.48C154.412 103.033 157.566 110.268 160.356 108.685C161.656 107.92 162.437 98.8394 163.199 96.8331C165.965 89.3852 173.783 87.7477 178.373 94.9543C182.722 101.763 180.039 116.143 174.47 121.415C172.278 123.45 169.186 123.461 167.092 125.374C164.898 127.368 166.863 131.123 166.502 133.752C166.162 136.181 164.545 138.475 162.755 140.225C158.755 144.113 153.455 145.863 149.371 149.489C147.634 151.014 147.256 153.549 145.138 154.487C143.057 155.386 140.495 154.233 138.324 154.871C136.744 155.869 135.152 156.859 133.551 157.857C130.615 159.382 125.882 161.971 124.315 162.44C124.315 168.684 139.239 165.359 142.312 163.698C144.49 162.523 145.138 159.655 147.3 158.727C149.597 157.72 151.612 160.071 154.093 159.218C156.39 158.39 158.545 156.536 160.575 155.182C164.484 152.524 168.702 150.289 172.345 147.168C173.583 146.084 175.526 144.604 176.057 143.132C177.004 140.495 172.83 133.998 180.224 135.071C185.955 135.832 191.66 124.313 192.758 120.228C193.401 117.08 194.024 113.903 194.654 110.744C195.452 108.848 196.226 106.945 197.028 105.032C198.179 100.341 193.993 100.497 193.309 97.093ZM63.4898 109.154C58.898 110.118 55.6836 104.849 57.7534 101.144C58.6174 99.5656 59.9549 98.8596 61.4507 97.9854C63.2612 98.145 64.8217 98.3147 66.1446 99.4064C69.976 102.585 68.1059 108.17 63.4898 109.154ZM94.1123 75.7083C93.6971 75.9114 92.9078 75.5336 92.4508 75.3411C86.6217 72.872 89.0295 69.103 91.2573 64.9656C95.7321 66.7467 96.7279 74.4318 94.1123 75.7083ZM102.272 92.8151C107.663 95.4482 109.524 100.02 109.342 102.338C109.283 103.084 108.831 103.718 108.831 103.718C108.831 103.718 107.449 104.209 105.921 103.596C101.591 101.859 102.272 97.2319 102.272 92.8151ZM145.212 111.867C144.984 113.731 144.3 114.551 143.093 115.893C141.005 115.893 139.067 114.886 138.446 113.021C137.871 111.339 138.397 109.225 138.54 107.53C139.013 101.508 139.468 94.6559 141.465 89.2363C143.467 93.6725 142.764 98.8703 143.746 103.899C144.244 106.453 145.547 108.967 145.212 111.867ZM174.523 85.6545C171.777 85.6545 169.108 85.9767 166.402 85.44C156.184 83.415 164.991 71.9504 167.176 67.3476C171.337 71.1308 175.959 79.6597 174.523 85.6545ZM217.211 178.147C218.586 178.147 219.698 179.258 219.698 180.634C219.698 182.008 218.586 183.118 217.211 183.118C215.838 183.118 214.726 182.008 214.726 180.634C214.726 179.259 215.838 178.147 217.211 178.147ZM219.088 180.635C219.088 179.555 218.25 178.684 217.211 178.684C216.173 178.684 215.336 179.554 215.336 180.635C215.336 181.713 216.173 182.584 217.211 182.584C218.251 182.584 219.088 181.713 219.088 180.635ZM217.061 180.85H216.648V182.025H216.162V179.242H217.246C217.936 179.242 218.289 179.479 218.289 180.043C218.289 180.55 217.968 180.759 217.575 180.831L218.336 182.026H217.773L217.061 180.85ZM217.144 180.439C217.499 180.439 217.814 180.406 217.814 180.009C217.814 179.682 217.466 179.63 217.186 179.63H216.637V180.439L217.144 180.439Z" fill="#CA3662"/>
<defs>
<linearGradient id="paint0_linear_662_104" x1="29.5" y1="-20.087" x2="215.55" y2="234.249" gradientUnits="userSpaceOnUse">
<stop stop-color="white" stop-opacity="0.05"/>
<stop offset="1" stop-color="#565656" stop-opacity="0.6"/>
</linearGradient>
</defs>
</svg>
