<svg width="236" height="95" viewBox="0 0 236 95" fill="none" xmlns="http://www.w3.org/2000/svg">
<path fill-rule="evenodd" clip-rule="evenodd" d="M5.45726 89.4136C5.26657 88.3971 4.37897 87.7001 2.91931 87.7001C1.96725 87.7001 1.26897 87.8908 0.824497 88.2722C0.627949 88.4055 0.467206 88.585 0.35644 88.7951C0.245675 89.0051 0.188289 89.2392 0.18934 89.4767C0.18934 90.175 0.570702 90.6195 0.950723 90.8732C1.26763 91.1257 1.77522 91.3164 2.34726 91.5084C2.85485 91.6991 3.17176 91.8253 3.42556 91.9515C3.67935 92.0791 3.80692 92.2053 3.80692 92.4605C3.80692 92.5867 3.74381 92.7129 3.55312 92.8405C3.42556 92.9036 3.17176 93.0312 2.85485 93.0312C2.28415 93.0312 2.03036 92.7787 1.90279 92.396L0 92.4605C0.190682 93.4756 1.07829 94.2357 2.79174 94.2357C3.87003 94.2357 4.5683 93.9188 5.01278 93.6005C5.23342 93.4419 5.41224 93.232 5.53387 92.989C5.6555 92.746 5.7163 92.477 5.71105 92.2053C5.71105 91.6333 5.3928 91.1902 5.01278 90.9364C4.69587 90.6826 4.31451 90.4919 3.74381 90.3012C3.10999 90.1105 2.85485 90.0487 2.60106 89.9212C2.2197 89.7936 2.09347 89.6043 2.09347 89.3491C2.09347 89.2229 2.15793 89.0967 2.2855 89.0322C2.41172 88.9691 2.66551 88.906 2.8562 88.906C3.30067 88.906 3.55447 89.1584 3.68069 89.4767L5.45726 89.4136ZM17.3869 90.3012V89.0322H20.3063V87.8264H15.4842V94.1094H20.3694V92.9036H17.3869V91.5084H19.4818V90.3012H17.3869ZM36.6149 90.6812H33.6956V91.8871H34.8384V92.776C34.6477 92.9023 34.2032 93.0285 33.5694 93.0285C32.5542 93.0285 31.9835 92.3302 31.9835 90.9337C31.9835 89.474 32.808 88.9033 33.5694 88.9033C34.077 88.9033 34.3952 89.1558 34.649 89.8554L36.5531 89.5371C36.2715 88.987 35.8445 88.5246 35.3184 88.2003C34.7923 87.8759 34.1874 87.702 33.5694 87.6974C31.4128 87.6974 30.0794 88.8402 30.0794 90.9337C30.0794 92.8378 31.0314 94.233 33.5063 94.233C34.9659 94.233 36.1718 93.6623 36.6149 93.1547V90.6812ZM50.8301 92.7129L51.2101 94.1094H53.2405L50.9563 87.8264H48.4184L46.1973 94.1094H48.1646L48.5459 92.7129H50.8301ZM50.5118 91.5084H48.926L49.3073 90.175C49.4336 89.7949 49.5611 89.3505 49.6873 88.8429H49.7505C49.878 89.3505 50.0043 89.7305 50.1318 90.175L50.5118 91.5084ZM78.8778 91.7609C78.8147 92.4605 78.3702 92.9667 77.6719 92.9667C76.9736 92.9667 76.4029 92.3947 76.4029 90.9981C76.4029 89.5385 76.9092 88.9047 77.735 88.9047C78.3702 88.9047 78.6857 89.3478 78.8778 90.1092L80.7188 89.9816C80.4019 88.3313 79.196 87.6974 77.7364 87.6974C76.8474 87.6974 76.086 87.9512 75.5153 88.3957C74.8802 88.9046 74.5001 89.7278 74.5001 90.8719C74.5001 92.2671 74.8815 93.0916 75.5153 93.5361C76.1505 94.0437 76.975 94.1712 77.7364 94.1712C79.0698 94.1712 80.4019 93.5361 80.7819 91.8871L78.8778 91.7609ZM90.2999 90.9364C90.2999 93.1574 91.6319 94.2357 93.6623 94.2357C95.6927 94.2357 97.0261 93.1574 97.0261 90.9364C97.0261 88.7798 95.6927 87.7001 93.6623 87.7001C91.6319 87.7001 90.2999 88.7784 90.2999 90.9364ZM93.6636 88.906C94.3619 88.906 95.1233 89.4136 95.1233 90.9995C95.1233 92.5236 94.3619 93.0312 93.6636 93.0312C92.9023 93.0312 92.204 92.5236 92.204 90.9995C92.204 89.4136 92.9023 88.906 93.6636 88.906ZM110.734 91.6977C111.558 91.5071 112.193 90.9363 112.193 89.8581C112.193 88.1446 110.48 87.8264 109.274 87.8264H106.736V94.1094H108.577V91.9515H109.022L110.291 94.1094H112.575L110.734 91.6977ZM108.576 90.7457V89.0322H109.274C109.972 89.0322 110.289 89.3491 110.289 89.9212C110.289 90.4919 109.972 90.7457 109.337 90.7457H108.576ZM123.934 94.1094V92.0777H124.82C126.598 92.0777 127.676 91.4426 127.676 89.8581C127.676 88.6522 126.916 87.8264 124.82 87.8264H122.03V94.1094H123.934ZM123.934 90.8101V89.0322H124.757C125.392 89.0322 125.772 89.286 125.772 89.9212C125.772 90.6195 125.392 90.8101 124.694 90.8101H123.934ZM137.197 90.9364C137.197 93.1574 138.466 94.2357 140.559 94.2357C142.59 94.2357 143.859 93.1574 143.859 90.9364C143.859 88.7798 142.59 87.7001 140.559 87.7001C138.466 87.7001 137.197 88.7784 137.197 90.9364ZM140.496 88.906C141.256 88.906 141.954 89.4136 141.954 90.9995C141.954 92.5236 141.256 93.0312 140.496 93.0312C139.798 93.0312 139.035 92.5236 139.035 90.9995C139.035 89.4136 139.798 88.906 140.496 88.906ZM157.631 91.6977C158.391 91.5071 159.089 90.9363 159.089 89.8581C159.089 88.1446 157.377 87.8264 156.17 87.8264H153.63V94.1094H155.471V91.9515H155.851L157.183 94.1094H159.468L157.631 91.6977ZM155.471 90.7457V89.0322H156.17C156.868 89.0322 157.185 89.3491 157.185 89.9212C157.185 90.4919 156.805 90.7457 156.17 90.7457H155.471ZM173.241 92.7129L173.621 94.1094H175.651L173.367 87.8264H170.828L168.544 94.1094H170.574L170.957 92.7129H173.241ZM172.86 91.5084H171.336L171.716 90.175C171.842 89.7949 171.969 89.3505 172.032 88.8429H172.159C172.288 89.3505 172.412 89.7305 172.541 90.175L172.86 91.5084ZM190.437 87.8264H184.917V89.0322H186.755V94.1094H188.596V89.0322H190.437V87.8264ZM201.923 94.1094V87.8264H200.081V94.1094H201.923ZM211.694 90.9364C211.694 93.1574 213.026 94.2357 215.057 94.2357C217.09 94.2357 218.422 93.1574 218.422 90.9364C218.422 88.7798 217.09 87.7001 215.057 87.7001C213.028 87.7001 211.694 88.7784 211.694 90.9364ZM215.057 88.906C215.819 88.906 216.518 89.4136 216.518 90.9995C216.518 92.5236 215.819 93.0312 215.057 93.0312C214.297 93.0312 213.598 92.5236 213.598 90.9995C213.598 89.4136 214.297 88.906 215.057 88.906ZM232.763 92.2053C232.509 91.4439 231.874 89.9843 230.796 87.8264H228.257V94.1094H229.969C229.969 91.9515 229.906 90.4919 229.843 89.7291H229.906C230.16 90.4905 230.858 91.9502 231.873 94.1094H234.475V87.8264H232.763C232.763 89.9829 232.763 91.4426 232.826 92.2053H232.763Z" fill="#EAAFC0"/>
<path fill-rule="evenodd" clip-rule="evenodd" d="M0.253906 76.9119H31.1578C43.7857 76.9119 54.0664 66.6312 54.0664 54.0019C54.0664 41.3739 43.7857 31.0946 31.1578 31.0946L23.0995 31.1577C22.9493 31.1584 22.8005 31.1294 22.6616 31.0723C22.5227 31.0152 22.3965 30.9311 22.2903 30.825C22.1841 30.7189 22.0999 30.5928 22.0426 30.454C21.9854 30.3152 21.9562 30.1664 21.9567 30.0163C21.9567 29.318 22.4643 28.8104 23.0995 28.8104H53.9402L54.0033 19.1649H23.0995C21.6825 19.1636 20.2792 19.4418 18.9698 19.9834C17.6604 20.5251 16.4707 21.3196 15.4687 22.3214C14.4667 23.3233 13.672 24.513 13.1302 25.8223C12.5884 27.1316 12.3101 28.5348 12.3112 29.9518C12.3112 35.9811 17.1333 40.8032 23.0995 40.8032L31.1578 40.8663C38.3916 40.8663 44.2933 46.768 44.2933 54.0019C44.2933 61.237 38.3916 67.0743 31.1578 67.0743H0.253906V76.9119Z" fill="#CA3662"/>
<path fill-rule="evenodd" clip-rule="evenodd" d="M0.253906 64.8546H31.1578C37.1857 64.8546 42.0092 59.9681 42.0092 54.0032C42.0092 48.0397 37.1857 43.1518 31.1578 43.1518L23.0995 43.0887C15.8643 43.0887 10.027 37.187 10.027 29.9532C10.0247 28.2358 10.3613 26.5349 11.0174 24.9478C11.6736 23.3608 12.6364 21.9188 13.8507 20.7044C15.0651 19.4901 16.5071 18.5273 18.0941 17.8711C19.6812 17.215 21.3821 16.8784 23.0995 16.8807H54.0033L53.9402 7.10895H23.0995C10.4715 7.10895 0.253906 17.3252 0.253906 30.0176C0.253906 42.6456 10.4701 52.8632 23.0995 52.8632H31.0947C31.7298 52.8632 32.2374 53.3707 32.2374 54.0046C32.2381 54.1549 32.209 54.3039 32.1519 54.4429C32.0947 54.582 32.0106 54.7083 31.9044 54.8147C31.7981 54.921 31.6719 55.0053 31.5329 55.0626C31.3939 55.1199 31.245 55.1492 31.0947 55.1487H0.253906V64.8546ZM77.9903 67.1388C76.7139 67.1441 75.4492 66.8967 74.2689 66.4107C73.0887 65.9248 72.0164 65.21 71.1138 64.3075C70.2112 63.4051 69.4963 62.3328 69.0102 61.1527C68.5241 59.9725 68.2765 58.7078 68.2816 57.4315V26.4C68.2816 21.1966 72.6606 16.8176 77.9903 16.8176H110.988V7.10895H77.9903C67.2664 7.10895 58.573 15.8024 58.573 26.5263V57.4315C58.573 68.1553 67.2664 76.8488 77.9903 76.8488H110.861V67.1401L77.9903 67.1388Z" fill="#CA3662"/>
<path fill-rule="evenodd" clip-rule="evenodd" d="M70.6309 26.5263C70.6309 22.4655 73.9302 19.1018 77.9909 19.1018H110.988V28.8104H82.5605C80.2764 28.8104 80.2764 31.0959 80.2764 31.0959H103.946L104.01 40.8046H70.6309V26.5263ZM77.9922 64.7915C76.0407 64.7901 74.1694 64.0142 72.7895 62.6342C71.4095 61.2543 70.6336 59.383 70.6322 57.4315V43.1518H104.01L103.946 52.8618H80.2764C80.2764 55.146 82.5605 55.146 82.5605 55.146H110.863V64.7915H77.9922ZM134.151 67.1388C128.758 67.1388 124.379 62.7598 124.379 57.4315V26.5263C124.379 21.1966 128.759 16.8176 134.088 16.8176H166.071V7.10895H134.024C123.301 7.10895 114.606 15.8024 114.606 26.5263V57.4315C114.606 68.1553 123.362 76.8488 134.088 76.8488H166.071V31.0959H138.593V40.8046H156.361V67.1388H134.151Z" fill="#CA3662"/>
<path fill-rule="evenodd" clip-rule="evenodd" d="M126.662 57.4315C126.662 61.4922 130.027 64.8546 134.087 64.8546H154.077V43.0887H138.593V52.8618H144.369V55.146L138.656 55.0815C137.387 55.0815 136.372 54.0664 136.372 52.8618V31.0959C136.372 31.0959 136.372 28.8104 138.656 28.8104H166.071V19.1018H134.088C130.029 19.1018 126.663 22.4642 126.663 26.5263L126.662 57.4315ZM196.085 18.9755C196.528 17.7066 197.672 16.8176 199.067 16.8176C200.465 16.8176 201.607 17.7066 202.05 18.9755L217.534 64.9191H194.879V54.1308H202.496L199.067 43.9146L187.9 76.8488H176.478L196.085 18.9755Z" fill="#CA3662"/>
<path fill-rule="evenodd" clip-rule="evenodd" d="M220.705 67.1387H194.877V76.8473H234.157L213.724 16.2455C211.948 10.3437 206.047 5.96478 199.065 5.96478C192.087 5.96478 186.185 10.2793 184.407 16.2455L163.785 76.8473H174.063L194.054 17.8958C194.877 15.9286 196.781 14.5965 199.065 14.5965C201.286 14.5965 203.19 15.9286 204.015 17.8958L220.705 67.1387Z" fill="#CA3662"/>
<path fill-rule="evenodd" clip-rule="evenodd" d="M228.449 15.1672C230.479 15.1672 232.383 14.4059 233.778 12.9462C234.489 12.2401 235.051 11.3993 235.433 10.4731C235.814 9.54681 236.007 8.55374 235.999 7.55207C235.999 5.52171 235.239 3.61758 233.778 2.22104C232.383 0.761383 230.479 0 228.449 0C224.26 0 220.832 3.36244 220.832 7.55207C220.832 9.58243 221.658 11.4866 223.053 12.9462C223.76 13.6564 224.601 14.2186 225.527 14.6C226.454 14.9814 227.447 15.1742 228.449 15.1672ZM221.913 7.55341C221.913 5.83996 222.611 4.18962 223.814 2.92065C224.423 2.31365 225.146 1.83295 225.942 1.50618C226.737 1.17941 227.589 1.013 228.449 1.01652C230.161 1.01652 231.811 1.71479 233.08 2.92065C234.286 4.18962 234.984 5.83862 234.984 7.55341C234.985 8.41202 234.817 9.26243 234.489 10.0559C234.161 10.8494 233.68 11.5704 233.073 12.1775C232.466 12.7846 231.745 13.266 230.951 13.594C230.158 13.922 229.307 14.0902 228.449 14.089C226.671 14.089 225.02 13.4538 223.814 12.1862C223.208 11.5769 222.729 10.8541 222.402 10.0592C222.076 9.26422 221.91 8.41271 221.913 7.55341Z" fill="#EAAFC0"/>
<path fill-rule="evenodd" clip-rule="evenodd" d="M226.483 8.18721V11.8048H225.402V3.36511H228.512C229.656 3.36511 230.353 3.36511 231.052 3.8727C231.624 4.31718 231.938 5.01545 231.938 5.83995C231.938 7.80719 230.353 8.06098 229.908 8.12544L232.257 11.8061H230.923L228.639 8.18856L226.483 8.18721ZM226.483 7.2996H228.704C229.084 7.2996 229.403 7.2996 229.72 7.17203C230.543 6.98135 230.798 6.41065 230.798 5.83861C230.798 5.64793 230.735 5.01411 230.289 4.63274C229.846 4.25272 229.274 4.31584 228.639 4.31584H226.483V7.2996Z" fill="#EAAFC0"/>
</svg>
