<svg width="259" height="231" viewBox="0 0 259 231" fill="none" xmlns="http://www.w3.org/2000/svg">
<rect width="259" height="231" rx="30" fill="url(#paint0_linear_662_96)" fill-opacity="0.6"/>
<path d="M68.588 63.7539H56.1991L46.3912 69.4722L35.5509 111.059L40.1968 119.897H61.8773L69.1042 114.178L87.1713 44H73.75L68.588 63.7539ZM72.2014 119.897L86.6551 63.7539H100.593L86.1389 119.897H72.2014ZM91.8171 44H105.755L102.657 55.4365H88.7199L91.8171 44ZM127.951 119.897L142.405 63.7539H156.343L141.889 119.897H127.951ZM147.567 44H161.505L158.407 55.4365H144.47L147.567 44ZM120.208 79.3491V80.3888H134.146L136.727 69.992L132.081 63.7539H112.981L102.657 69.4722L91.8171 111.059L96.463 119.897H118.144L125.37 114.178L132.597 87.1467H116.079L114.014 94.9443H116.595L114.53 102.742C113.437 106.58 111.364 106.771 110.4 106.901C109.101 106.771 107.217 105.826 107.819 102.742L114.014 79.3491C114.214 78.5125 114.671 77.7607 115.319 77.2007C115.968 76.6407 116.776 76.301 117.627 76.2301C118.703 76.2561 120.957 77.0185 120.208 79.3491ZM207.447 119.897H221.384L241 44H227.063L207.447 119.897ZM183.701 63.7539H211.06L216.222 69.992L204.866 114.178L197.639 119.897H175.958L171.313 111.059L176.475 91.3054L183.701 87.1467H190.928L198.155 84.5475L200.736 76.2301H180.604L183.701 63.7539ZM90.2685 181.238L83.0417 186.956H61.3611L56.7153 178.119L67.5556 136.532L77.3634 130.813H96.463L101.625 137.051L90.2685 181.238ZM186.282 130.813H214.157L218.803 137.051L207.447 181.238L200.22 186.956H171.829L186.282 130.813ZM146.019 130.813H160.472L162.021 156.805L168.731 130.813H182.669L168.215 186.956H154.278L152.729 157.845L145.502 186.956H131.565L146.019 130.813ZM107.303 130.813L94.9144 178.119L99.5602 186.956H121.241L128.468 181.238L141.373 130.813H127.435L117.111 170.321C116.912 171.299 116.401 172.184 115.655 172.841C114.909 173.498 113.97 173.891 112.981 173.96C111.545 173.865 110.228 172.912 110.917 170.321L121.241 130.813H107.303ZM51.5532 181.238L44.3264 186.956H22.6458L18 178.119L20.581 168.762H34.5185L33.4861 171.361C33.0731 173.293 34.3895 173.865 35.5509 173.96C37.0221 173.865 39.4741 173.674 40.1968 171.361L41.2292 166.682L23.162 158.365L28.8403 136.532L39.1644 130.813H57.7477L62.9097 137.051L59.8125 149.528H45.875L46.3912 146.408C47.002 144.485 45.4965 143.541 43.8102 143.289C42.4853 143.541 40.6011 144.676 40.1968 146.408L39.1644 151.607L56.7153 160.444L51.5532 181.238ZM165.118 119.897H153.245L148.6 110.54L165.634 44H180.088L174.926 63.7539H180.088L176.475 76.2301H171.313L164.602 102.222C163.871 104.492 164.808 106.762 166.667 106.901H168.731L165.118 119.897Z" fill="#CA3662"/>
<path d="M64.4568 79.1338L57.7462 104.167C57.1612 106.453 54.7092 106.644 53.6166 106.775C52.0765 106.644 50.7602 106.07 51.5517 104.167L57.7462 79.1338C58.2882 77.3607 60.1723 76.222 61.8758 76.0047C63.1835 76.222 64.6891 77.1694 64.4568 79.1338ZM188.862 97.9087H195.056L192.475 106.775H186.797L188.862 97.9087ZM197.121 143.281C201.698 143.533 202.825 145.437 201.767 149.018L196.605 169.879C195.865 171.478 194.738 173.955 188.862 174.051L197.121 143.281ZM85.6212 146.41L78.9105 171.443C78.2395 173.764 75.7875 173.955 74.2647 174.051C73.1549 173.955 71.8385 173.382 72.1999 171.443L78.9105 146.41C79.3665 144.672 81.2507 143.533 82.524 143.281C84.2618 143.533 85.7674 144.481 85.6212 146.41Z" fill="white" fill-opacity="0.6"/>
<defs>
<linearGradient id="paint0_linear_662_96" x1="29.5" y1="-20.087" x2="215.55" y2="234.249" gradientUnits="userSpaceOnUse">
<stop stop-color="white" stop-opacity="0.05"/>
<stop offset="1" stop-color="#565656" stop-opacity="0.6"/>
</linearGradient>
</defs>
</svg>
