<!--?xml version="1.0" standalone="no"?-->
              <svg id="sw-js-blob-svg" viewBox="0 0 100 100" xmlns="http://www.w3.org/2000/svg" version="1.1">
                    <defs> 
                        <linearGradient id="sw-gradient" x1="0" x2="1" y1="1" y2="0">
                            <stop id="stop1" stop-color="rgba(248, 117, 55, 1)" offset="0%"></stop>
                            <stop id="stop2" stop-color="rgba(251, 168, 31, 1)" offset="100%"></stop>
                        </linearGradient>
                    </defs>
                <path fill="url(#sw-gradient)" d="M20.8,-31.7C26.5,-28.6,30.3,-22.1,32.2,-15.5C34.1,-8.8,34,-2,34.5,6C35,14,36.1,23.1,32.2,28.2C28.3,33.2,19.3,34.1,11.5,34.1C3.7,34.2,-3,33.4,-9.5,31.8C-16.1,30.1,-22.5,27.6,-27,23.1C-31.6,18.5,-34.1,11.9,-35.8,4.7C-37.6,-2.5,-38.5,-10.3,-35.9,-16.6C-33.3,-22.9,-27.1,-27.7,-20.5,-30.4C-14,-33.1,-7,-33.7,0.3,-34.1C7.5,-34.5,15.1,-34.8,20.8,-31.7Z" width="100%" height="100%" transform="translate(50 50)" stroke-width="0" style="transition: all 0.3s ease 0s;" stroke="url(#sw-gradient)"></path>
              </svg>