<svg width="49" height="49" viewBox="0 0 49 49" fill="none" xmlns="http://www.w3.org/2000/svg">
<path fill-rule="evenodd" clip-rule="evenodd" d="M24.5 49C38.031 49 49 38.031 49 24.5C49 10.969 38.031 0 24.5 0C10.969 0 0 10.969 0 24.5C0 38.031 10.969 49 24.5 49ZM24.5 45C35.8218 45 45 35.8218 45 24.5C45 13.1782 35.8218 4 24.5 4C13.1782 4 4 13.1782 4 24.5C4 35.8218 13.1782 45 24.5 45ZM14.7704 33.9626C13.7926 32.9849 13.7926 31.3996 14.7704 30.4219L18.5756 26.6167C18.0129 25.6825 17.5899 24.6532 17.3345 23.5567L16.454 19.7759C16.1718 18.5646 16.535 17.2934 17.4145 16.4139C18.294 15.5344 19.5652 15.1712 20.7766 15.4534L24.5575 16.334C25.6538 16.5894 26.6831 17.0124 27.6172 17.5751L32.4219 12.7704C33.3996 11.7926 34.9849 11.7926 35.9626 12.7704C36.9404 13.7481 36.9404 15.3334 35.9626 16.3112L31.1745 21.0993C31.7628 22.0557 32.2038 23.1139 32.4669 24.2433L33.3476 28.0244C33.6298 29.2358 33.2667 30.507 32.3871 31.3865C31.5077 32.266 30.2365 32.6292 29.0251 32.3471L25.2443 31.4665C24.1147 31.2034 23.0563 30.7623 22.0998 30.174L18.3112 33.9626C17.3334 34.9404 15.7481 34.9404 14.7704 33.9626Z" fill="white"/>
</svg>
