<svg width="43" height="44" viewBox="0 0 43 44" fill="none" xmlns="http://www.w3.org/2000/svg">
<path fill-rule="evenodd" clip-rule="evenodd" d="M2.5 0C1.11929 0 0 1.11929 0 2.5C0 3.88071 1.11929 5 2.5 5H39.5C40.8807 5 42 3.88071 42 2.5C42 1.11929 40.8807 0 39.5 0H2.5ZM0 21.5C0 20.1193 1.11929 19 2.5 19H40.5C41.8807 19 43 20.1193 43 21.5C43 22.8807 41.8807 24 40.5 24H2.5C1.11929 24 0 22.8807 0 21.5ZM0 40.5C0 39.1193 1.11929 38 2.5 38H27.5C28.8807 38 30 39.1193 30 40.5C30 41.8807 28.8807 43 27.5 43H2.5C1.11929 43 0 41.8807 0 40.5Z" fill="white"/>
</svg>
